<svg width="717" height="69" viewBox="0 0 717 69" fill="none" xmlns="http://www.w3.org/2000/svg">
<rect width="717" height="69" fill="#E5E5E5"/>
<rect id="Rectangle 1" x="10" y="8" width="697" height="1264" fill="white"/>
<g id="Rectangle 2" filter="url(#filter0_d_0_1)">
<rect x="10" y="8" width="697" height="49" fill="white"/>
</g>
<path id="Vector" d="M658 38H676V36H658V38ZM658 33H676V31H658V33ZM658 26V28H676V26H658Z" fill="#AAAAAA"/>
<path id="LOVT" d="M58.8 21.35V38.75H66.6V41H56.25V21.35H58.8ZM75.2377 20.99C77.4777 20.99 79.1277 21.55 80.1877 22.67C81.2477 23.79 81.7777 25.38 81.7777 27.44V34.91C81.7777 36.97 81.2477 38.56 80.1877 39.68C79.1277 40.8 77.4777 41.36 75.2377 41.36C72.9977 41.36 71.3477 40.8 70.2877 39.68C69.2277 38.56 68.6977 36.97 68.6977 34.91V27.44C68.6977 25.38 69.2277 23.79 70.2877 22.67C71.3477 21.55 72.9977 20.99 75.2377 20.99ZM75.2377 23.24C73.9177 23.24 72.9177 23.57 72.2377 24.23C71.5777 24.89 71.2477 25.86 71.2477 27.14V35.18C71.2477 36.46 71.5777 37.44 72.2377 38.12C72.9177 38.78 73.9177 39.11 75.2377 39.11C76.5577 39.11 77.5477 38.78 78.2077 38.12C78.8877 37.44 79.2277 36.46 79.2277 35.18V27.17C79.2277 25.89 78.8877 24.92 78.2077 24.26C77.5477 23.58 76.5577 23.24 75.2377 23.24ZM98.8334 21.35L92.9234 41H89.5634L83.8334 21.35H86.5334L91.2434 38.54L96.1334 21.35H98.8334ZM114.084 21.35V23.66H108.384V41H105.834V23.66H100.134V21.35H114.084Z" fill="#777777"/>
<path id="You Love, your loft!" d="M121.78 23.45L119.88 27.75V30H119.03V27.75L117.13 23.45H118.1L119.46 26.85L120.83 23.45H121.78ZM123.637 25C124.231 25 124.671 25.16 124.957 25.48C125.251 25.7933 125.397 26.24 125.397 26.82V28.3C125.397 28.88 125.251 29.33 124.957 29.65C124.671 29.9633 124.231 30.12 123.637 30.12C123.044 30.12 122.601 29.9633 122.307 29.65C122.021 29.33 121.877 28.88 121.877 28.3V26.82C121.877 26.24 122.021 25.7933 122.307 25.48C122.601 25.16 123.044 25 123.637 25ZM123.637 25.71C123.351 25.71 123.127 25.8 122.967 25.98C122.807 26.16 122.727 26.4167 122.727 26.75V28.37C122.727 28.7033 122.807 28.96 122.967 29.14C123.127 29.32 123.351 29.41 123.637 29.41C123.924 29.41 124.147 29.32 124.307 29.14C124.467 28.96 124.547 28.7033 124.547 28.37V26.74C124.547 26.4067 124.467 26.1533 124.307 25.98C124.147 25.8 123.924 25.71 123.637 25.71ZM130.094 30H129.294V29.3C129.114 29.5667 128.914 29.77 128.694 29.91C128.474 30.05 128.241 30.12 127.994 30.12C127.587 30.12 127.267 29.98 127.034 29.7C126.807 29.4133 126.694 28.9967 126.694 28.45V25.12H127.544V28.3C127.544 28.6533 127.597 28.9133 127.704 29.08C127.817 29.2467 127.971 29.33 128.164 29.33C128.344 29.33 128.531 29.26 128.724 29.12C128.924 28.9733 129.097 28.7733 129.244 28.52V25.12H130.094V30ZM134.196 23.45V29.25H136.796V30H133.346V23.45H134.196ZM139.311 25C139.905 25 140.345 25.16 140.631 25.48C140.925 25.7933 141.071 26.24 141.071 26.82V28.3C141.071 28.88 140.925 29.33 140.631 29.65C140.345 29.9633 139.905 30.12 139.311 30.12C138.718 30.12 138.275 29.9633 137.981 29.65C137.695 29.33 137.551 28.88 137.551 28.3V26.82C137.551 26.24 137.695 25.7933 137.981 25.48C138.275 25.16 138.718 25 139.311 25ZM139.311 25.71C139.025 25.71 138.801 25.8 138.641 25.98C138.481 26.16 138.401 26.4167 138.401 26.75V28.37C138.401 28.7033 138.481 28.96 138.641 29.14C138.801 29.32 139.025 29.41 139.311 29.41C139.598 29.41 139.821 29.32 139.981 29.14C140.141 28.96 140.221 28.7033 140.221 28.37V26.74C140.221 26.4067 140.141 26.1533 139.981 25.98C139.821 25.8 139.598 25.71 139.311 25.71ZM145.859 25.12L144.349 30H143.239L141.739 25.12H142.639L143.799 29.38L144.959 25.12H145.859ZM148.226 25C148.786 25 149.212 25.1533 149.506 25.46C149.799 25.7667 149.946 26.21 149.946 26.79V27.82H147.376V28.41C147.376 28.75 147.456 28.9967 147.616 29.15C147.782 29.2967 148.042 29.37 148.396 29.37C148.742 29.37 149.176 29.3167 149.696 29.21L149.716 29.95C149.096 30.0633 148.652 30.12 148.386 30.12C147.726 30.12 147.249 29.9767 146.956 29.69C146.669 29.4033 146.526 28.96 146.526 28.36V26.79C146.526 26.21 146.666 25.7667 146.946 25.46C147.232 25.1533 147.659 25 148.226 25ZM148.226 25.71C147.966 25.71 147.759 25.7933 147.606 25.96C147.452 26.12 147.376 26.3533 147.376 26.66V27.14H149.096V26.69C149.096 26.37 149.016 26.1267 148.856 25.96C148.702 25.7933 148.492 25.71 148.226 25.71ZM151.498 28.9C151.678 28.9 151.815 28.94 151.908 29.02C152.002 29.0933 152.048 29.2033 152.048 29.35V29.67C152.048 29.8633 152.025 30.0333 151.978 30.18L151.548 31.61H150.948L151.308 30.08C151.075 30.0267 150.958 29.8833 150.958 29.65V29.35C150.958 29.2033 151.005 29.0933 151.098 29.02C151.192 28.94 151.325 28.9 151.498 28.9ZM121.26 36.12L119.02 42.85H118.17L118.81 41H118.49L117.1 36.12H118.03L119.08 40.39L120.38 36.12H121.26ZM123.686 36C124.28 36 124.72 36.16 125.006 36.48C125.3 36.7933 125.446 37.24 125.446 37.82V39.3C125.446 39.88 125.3 40.33 125.006 40.65C124.72 40.9633 124.28 41.12 123.686 41.12C123.093 41.12 122.65 40.9633 122.356 40.65C122.07 40.33 121.926 39.88 121.926 39.3V37.82C121.926 37.24 122.07 36.7933 122.356 36.48C122.65 36.16 123.093 36 123.686 36ZM123.686 36.71C123.4 36.71 123.176 36.8 123.016 36.98C122.856 37.16 122.776 37.4167 122.776 37.75V39.37C122.776 39.7033 122.856 39.96 123.016 40.14C123.176 40.32 123.4 40.41 123.686 40.41C123.973 40.41 124.196 40.32 124.356 40.14C124.516 39.96 124.596 39.7033 124.596 39.37V37.74C124.596 37.4067 124.516 37.1533 124.356 36.98C124.196 36.8 123.973 36.71 123.686 36.71ZM130.143 41H129.343V40.3C129.163 40.5667 128.963 40.77 128.743 40.91C128.523 41.05 128.29 41.12 128.043 41.12C127.636 41.12 127.316 40.98 127.083 40.7C126.856 40.4133 126.743 39.9967 126.743 39.45V36.12H127.593V39.3C127.593 39.6533 127.646 39.9133 127.753 40.08C127.866 40.2467 128.02 40.33 128.213 40.33C128.393 40.33 128.58 40.26 128.773 40.12C128.973 39.9733 129.146 39.7733 129.293 39.52V36.12H130.143V41ZM133.678 36C133.771 36 133.844 36.0067 133.898 36.02V36.98C133.798 36.96 133.668 36.95 133.508 36.95C133.041 36.95 132.671 37.1833 132.398 37.65V41H131.548V36.12H132.348V36.85C132.528 36.5767 132.728 36.3667 132.948 36.22C133.174 36.0733 133.418 36 133.678 36ZM137.446 34.17V41H136.596V34.17H137.446ZM140.503 36C141.096 36 141.536 36.16 141.823 36.48C142.116 36.7933 142.263 37.24 142.263 37.82V39.3C142.263 39.88 142.116 40.33 141.823 40.65C141.536 40.9633 141.096 41.12 140.503 41.12C139.909 41.12 139.466 40.9633 139.173 40.65C138.886 40.33 138.743 39.88 138.743 39.3V37.82C138.743 37.24 138.886 36.7933 139.173 36.48C139.466 36.16 139.909 36 140.503 36ZM140.503 36.71C140.216 36.71 139.993 36.8 139.833 36.98C139.673 37.16 139.593 37.4167 139.593 37.75V39.37C139.593 39.7033 139.673 39.96 139.833 40.14C139.993 40.32 140.216 40.41 140.503 40.41C140.789 40.41 141.013 40.32 141.173 40.14C141.333 39.96 141.413 39.7033 141.413 39.37V37.74C141.413 37.4067 141.333 37.1533 141.173 36.98C141.013 36.8 140.789 36.71 140.503 36.71ZM145.359 34.05C145.579 34.05 145.789 34.0733 145.989 34.12V34.8C145.789 34.7667 145.583 34.75 145.369 34.75C145.163 34.75 144.999 34.8167 144.879 34.95C144.766 35.0833 144.709 35.2867 144.709 35.56V36.12H145.709V36.82H144.709V41H143.859V36.82H143.159V36.12H143.859V35.61C143.866 35.09 143.996 34.7 144.249 34.44C144.503 34.18 144.873 34.05 145.359 34.05ZM147.684 36.12H148.984V36.82H147.684V39.68C147.684 39.9333 147.734 40.1167 147.834 40.23C147.941 40.3367 148.104 40.39 148.324 40.39C148.604 40.39 148.878 40.3567 149.144 40.29L149.164 41C148.871 41.08 148.604 41.12 148.364 41.12C147.831 41.12 147.441 41.0033 147.194 40.77C146.954 40.53 146.834 40.1433 146.834 39.61V36.82H146.134V36.12H146.834L146.994 34.82H147.684V36.12ZM150.893 34.05L150.823 39H150.013L149.943 34.05H150.893ZM150.413 39.92C150.593 39.92 150.73 39.96 150.823 40.04C150.923 40.12 150.973 40.2333 150.973 40.38V40.67C150.973 40.8167 150.923 40.9267 150.823 41C150.73 41.08 150.593 41.12 150.413 41.12C150.24 41.12 150.103 41.08 150.003 41C149.91 40.9267 149.863 40.8167 149.863 40.67V40.38C149.863 40.2333 149.91 40.12 150.003 40.04C150.103 39.96 150.24 39.92 150.413 39.92Z" fill="#AAAAAA"/>
<defs>
<filter id="filter0_d_0_1" x="0" y="0" width="717" height="69" filterUnits="userSpaceOnUse" color-interpolation-filters="sRGB">
<feFlood flood-opacity="0" result="BackgroundImageFix"/>
<feColorMatrix in="SourceAlpha" type="matrix" values="0 0 0 0 0 0 0 0 0 0 0 0 0 0 0 0 0 0 127 0" result="hardAlpha"/>
<feOffset dy="2"/>
<feGaussianBlur stdDeviation="5"/>
<feColorMatrix type="matrix" values="0 0 0 0 0 0 0 0 0 0 0 0 0 0 0 0 0 0 0.25 0"/>
<feBlend mode="normal" in2="BackgroundImageFix" result="effect1_dropShadow_0_1"/>
<feBlend mode="normal" in="SourceGraphic" in2="effect1_dropShadow_0_1" result="shape"/>
</filter>
</defs>
</svg>
